<svg width="121" height="121" viewBox="0 0 121 121" fill="none" xmlns="http://www.w3.org/2000/svg">
<path d="M60.5 105.875C85.5599 105.875 105.875 85.5599 105.875 60.5C105.875 35.4401 85.5599 15.125 60.5 15.125C35.4401 15.125 15.125 35.4401 15.125 60.5C15.125 85.5599 35.4401 105.875 60.5 105.875Z" fill="#A90140"/>
<path d="M29.9475 69.8019L22.385 72.1274C24.2867 78.3858 27.6967 84.0813 32.3153 88.7131C36.9339 93.3449 42.6196 96.7711 48.8727 98.6906L51.1981 91.1281C46.1716 89.6024 41.6006 86.8566 37.8928 83.1355C34.1849 79.4145 31.4554 74.8338 29.9475 69.8019Z" fill="#B95F81"/>
<path d="M88.727 32.273C84.1066 27.6254 78.4018 24.2012 72.1273 22.3094L69.8019 29.8719C74.8284 31.3976 79.3994 34.1434 83.1072 37.8645C86.8151 41.5855 89.5446 46.1662 91.0525 51.1981L98.615 48.8727C96.7449 42.6058 93.3472 36.9017 88.727 32.273Z" fill="#B95F81"/>
<path d="M40.9509 66.4555L36.0542 67.9491C37.2726 71.9658 39.4629 75.62 42.4309 78.588C45.3989 81.556 49.0531 83.7463 53.0698 84.9647L54.5634 80.068C51.351 79.1014 48.4281 77.3539 46.056 74.9818C43.6839 72.6097 41.9364 69.6868 40.9698 66.4744L40.9509 66.4555Z" fill="#B95F81"/>
<path d="M78.5744 42.4256C75.6082 39.4633 71.9594 37.2753 67.9491 36.0542L66.4555 40.9509C69.6679 41.9175 72.5908 43.665 74.9629 46.0371C77.335 48.4092 79.0825 51.3321 80.0491 54.5445L84.9458 53.0509C83.7247 49.0406 81.5367 45.3918 78.5744 42.4256Z" fill="#B95F81"/>
<path d="M60.5 76.6648C69.4276 76.6648 76.6648 69.4276 76.6648 60.5C76.6648 51.5724 69.4276 44.3352 60.5 44.3352C51.5724 44.3352 44.3352 51.5724 44.3352 60.5C44.3352 69.4276 51.5724 76.6648 60.5 76.6648Z" fill="#B95F81"/>
<path d="M60.5 76.6648C69.4276 76.6648 76.6648 69.4276 76.6648 60.5C76.6648 51.5724 69.4276 44.3352 60.5 44.3352C51.5724 44.3352 44.3352 51.5724 44.3352 60.5C44.3352 69.4276 51.5724 76.6648 60.5 76.6648Z" fill="#DCDFE2"/>
<path d="M60.5 66.5689C63.8518 66.5689 66.5689 63.8518 66.5689 60.5C66.5689 57.1482 63.8518 54.4311 60.5 54.4311C57.1482 54.4311 54.4311 57.1482 54.4311 60.5C54.4311 63.8518 57.1482 66.5689 60.5 66.5689Z" fill="white"/>
</svg>
